<svg width="20" height="20" viewBox="0 0 20 20" fill="none" xmlns="http://www.w3.org/2000/svg">
<path d="M16.9861 16.986H14.0323V12.3601C14.0323 11.2571 14.0126 9.83705 12.496 9.83705C10.9575 9.83705 10.7221 11.0389 10.7221 12.2798V16.9857H7.76829V7.47305H10.604V8.77305H10.6437C10.9275 8.28783 11.3376 7.88867 11.8302 7.61807C12.3229 7.34748 12.8798 7.21558 13.4415 7.23644C16.4354 7.23644 16.9874 9.20567 16.9874 11.7675L16.9861 16.986ZM4.43538 6.17274C4.09635 6.1728 3.76491 6.07233 3.48299 5.88403C3.20106 5.69572 2.98132 5.42805 2.85153 5.11485C2.72173 4.80165 2.68771 4.457 2.75379 4.12448C2.81988 3.79195 2.98308 3.48649 3.22277 3.24672C3.46245 3.00695 3.76786 2.84363 4.10036 2.77743C4.43286 2.71123 4.77752 2.74512 5.09076 2.8748C5.40401 3.00448 5.67176 3.22414 5.86016 3.506C6.04857 3.78786 6.14917 4.11925 6.14923 4.45828C6.14927 4.68339 6.10496 4.9063 6.01886 5.11428C5.93275 5.32227 5.80653 5.51126 5.64739 5.67046C5.48824 5.82966 5.29928 5.95596 5.09133 6.04214C4.88337 6.12832 4.66048 6.1727 4.43538 6.17274ZM5.9123 16.986H2.95538V7.47305H5.9123V16.986ZM18.4588 0.0013582H1.47108C1.08551 -0.00299298 0.713961 0.145911 0.43812 0.415348C0.162278 0.684785 0.0047057 1.05271 0 1.43828V18.4964C0.00454464 18.8822 0.162025 19.2504 0.437857 19.5201C0.713689 19.7898 1.08532 19.939 1.47108 19.9349H18.4588C18.8453 19.9397 19.218 19.791 19.4949 19.5213C19.7718 19.2516 19.9303 18.883 19.9357 18.4964V1.43705C19.9302 1.05072 19.7715 0.682371 19.4946 0.412941C19.2177 0.14351 18.8451 -0.00496833 18.4588 0.000126938" fill="#96979B"/>
</svg>
